<svg viewBox="0 0 1131.15 47.03" xmlns="http://www.w3.org/2000/svg" preserveAspectRatio="xMinYMin"><path d="m0 29.88c2.47-1.3 4.32-2.47 7.15-2.62 3.63-.19 7 .23 10.44-.64 6.65-1.62 14.54-.62 21.5-.62 9.77 0 19.54.09 29.31 0 4.94-.06 9.43 1.62 14.19 2.53 5.88 1.12 12.13 1.05 18.08 2.06 1.67.28 3.27.38 4.92.62s2.34 1.05 3.81 1.41 3.77-.06 5.28-.07a25.53 25.53 0 0 1 7 1c7.32 1.77 15.49 0 23 1.31 5 .9 10.48.28 15.58.28 5.49 0 11.11.39 16.57-.09 3.47-.31 6.58-1.65 9.91-2.25s6.82-.21 10.29-.9a63.32 63.32 0 0 0 12.89-4.07c5.92-2.55 12.63-4.15 18.85-5.59 4.49-1 8.14-3.75 12.58-5.08a62.7 62.7 0 0 1 17.95-2.87c5.84 0 11.82-.43 17.63 0 3.53.23 7.46 2.28 10.82 3.63a94.41 94.41 0 0 0 10.17 3.59c2.25.61 4.23.34 6.42.75 1.89.36 3.24 1.13 5.26 1.21 4.88.2 9.8-.31 14.67 0 4 .22 7.26 2.76 11 4.26 4.14 1.68 8.29 3 12.46 4.6 3.39 1.3 7.23 2.94 10.71 2.89s7.6.72 10.85-.11c3.74-.95 8-2.88 12-3.67a41.09 41.09 0 0 0 12-4.07c2.34-1.24 4.88-1.71 7.37-2.57 2.33-.8 4.82-2.33 7.28-2.67 4.16-.58 8.66-.47 12.74-1.53 5.92-1.53 12.57-1 19-1 13.68 0 27 .21 40.61 1.41 9.74.86 19.37 3 29.16 3.76a76.42 76.42 0 0 1 13.12 2.23c2.83.73 6.13.32 9.06.29 4.65-.05 8.75 1.32 13.38 1.3 1.77 0 4.47-.44 6.23-.07s3.17 1.27 5.18 1.42c3.52.27 7.12-.3 10.65-.08 2.91.19 5.45 1.36 8.3 2 6.62 1.53 13.46 2.29 19.89 4.56 6.76 2.39 14.49 2.45 21.49 3.59a40.85 40.85 0 0 0 13.25-.01c3.51-.66 7-1.41 10.55-2 3.15-.54 6.47.36 9.53-.23 5.55-1.07 11.53-2.57 17.26-2.71a54 54 0 0 0 9.66-1c4.17-.84 8.31 0 12.47-.93 11.19-2.53 22.75-4.69 33.67-7.21 5.44-1.26 11.65-1.39 17.16-2.28a85.68 85.68 0 0 1 14.49-1.59c9.25.11 18.52 0 27.77 0s17.69 1.17 26.76 1.29c8.42.12 15.66 2.83 23.74 4 2.16.31 4 0 6.2.58a22.28 22.28 0 0 0 5.85.63c3.61.12 6.63 1.34 10.4 1.32h24.78c3.66 0 7.39.21 11.05 0 5-.24 10-2.69 14.68-4.29 3.12-1.06 5.72-2.05 8.75-3.19 4.58-1.74 8.27-1.67 13.13-1.67s9.07 0 13.81 1.31c5.24 1.48 10.39 3 15.63 4.54 4.92 1.43 9.85 3.84 14.57 5.91a32.85 32.85 0 0 0 4.81 1.93c2.54.69 4.91.41 7.54.93 3.79.76 7.45 1.27 11.27 2 5.08 1 10.48.62 15.4 1.88 3.8 1 7.59 2 11.51 2.91 2.75.64 5.47 1.46 8.14 2.36 2.36.79 3.84.43 6.15.9 1.34.27 1.89 1.12 3.14 1.42 1.44.35 3.77-.06 5.28-.07h13.13c3 0 6.17.42 9-.29 3.15-.78 6.58-2.64 9.41-3.33s5.24-2.17 8.19-2.78a28.87 28.87 0 0 1 4.56-.08c2.16-.11 3.75-1.07 5.86-1.37a33.85 33.85 0 0 0 4.56-1c1.82-.48 3.42.08 5.21-.22s2.88-1.23 4.56-1.42c1.94-.22 3.69.19 5.58-.24a19.69 19.69 0 0 1 3.55-1 19.62 19.62 0 0 0 3.54-1c1.64-.37 3.41.16 5-.22s1.84-2 3.85-1.37v-32.42h-1131.15z" fill="#fff"/></svg>